<svg width="20" height="16" viewBox="0 0 20 16" fill="none" xmlns="http://www.w3.org/2000/svg">
<path d="M3.0127 15.8887H17.1895C18.8857 15.8887 19.8701 14.9043 19.8701 13.0234V3.31152C19.8701 1.43066 18.877 0.446289 16.9785 0.446289H2.80176C1.10547 0.446289 0.121094 1.42188 0.121094 3.31152V13.0234C0.121094 14.9043 1.11426 15.8887 3.0127 15.8887ZM9.00684 8.4707L2.6084 2.14258C2.73145 2.11621 2.87207 2.09863 3.02148 2.09863H16.9697C17.1279 2.09863 17.2686 2.11621 17.4004 2.15137L11.0107 8.4707C10.6416 8.83105 10.334 8.98926 10.0088 8.98926C9.68359 8.98926 9.37598 8.82227 9.00684 8.4707ZM1.76465 3.43457L6.5459 8.13672L1.76465 12.8652V3.43457ZM13.4717 8.13672L18.2266 3.46094V12.8477L13.4717 8.13672ZM3.02148 14.2275C2.86328 14.2275 2.71387 14.21 2.58203 14.1836L7.61816 9.19141L8.09277 9.66602C8.73438 10.29 9.34961 10.5537 10.0088 10.5537C10.6592 10.5537 11.2832 10.29 11.916 9.66602L12.3994 9.19141L17.4268 14.1748C17.2861 14.21 17.1367 14.2275 16.9697 14.2275H3.02148Z" fill="#E4FF00"/>
</svg>
