<svg width="28" height="28" viewBox="0 0 28 28" fill="none" xmlns="http://www.w3.org/2000/svg">
<path d="M12.666 23.5493H14.4502C15.1797 23.5493 15.751 23.0923 15.9268 22.3892L16.2783 20.8511L16.5068 20.7632L17.8516 21.5981C18.4668 21.9849 19.1963 21.8794 19.7148 21.3608L20.9453 20.1304C21.4727 19.603 21.5605 18.8823 21.1738 18.2759L20.3389 16.9312L20.4268 16.7202L21.9648 16.3599C22.6592 16.1841 23.1162 15.6128 23.1162 14.8833V13.1519C23.1162 12.4224 22.668 11.8511 21.9648 11.6753L20.4355 11.3062L20.3477 11.0776L21.1826 9.7417C21.5693 9.13525 21.4814 8.41455 20.9541 7.87842L19.7236 6.64795C19.2139 6.12939 18.4844 6.03271 17.8691 6.41064L16.5244 7.23682L16.2783 7.14893L15.9268 5.60205C15.751 4.89893 15.1797 4.45068 14.4502 4.45068H12.666C11.9277 4.45068 11.3564 4.89893 11.1895 5.60205L10.8379 7.14893L10.5918 7.23682L9.24707 6.41064C8.62305 6.03271 7.90234 6.12939 7.39258 6.64795L6.15332 7.87842C5.63477 8.41455 5.53809 9.13525 5.9248 9.7417L6.75977 11.0776L6.67188 11.3062L5.15137 11.6753C4.44824 11.8511 4 12.4224 4 13.1519V14.8833C4 15.6128 4.45703 16.1841 5.15137 16.3599L6.68945 16.7202L6.76855 16.9312L5.93359 18.2759C5.54688 18.8823 5.64355 19.603 6.16211 20.1304L7.40137 21.3608C7.91113 21.8794 8.64062 21.9849 9.25586 21.5981L10.6006 20.7632L10.8379 20.8511L11.1895 22.3892C11.3564 23.0923 11.9277 23.5493 12.666 23.5493ZM12.8945 21.9321C12.7451 21.9321 12.666 21.8706 12.6484 21.7388L12.1211 19.5767C11.5674 19.4448 11.0312 19.2163 10.6006 18.9438L8.70215 20.1128C8.58789 20.1831 8.48242 20.1743 8.37695 20.0688L7.4541 19.146C7.34863 19.0493 7.34863 18.9438 7.41895 18.8296L8.58789 16.9312C8.3418 16.5093 8.11328 15.9819 7.98145 15.4282L5.81055 14.9097C5.67871 14.8921 5.6084 14.813 5.6084 14.6636V13.3628C5.6084 13.2046 5.66992 13.1431 5.81055 13.1079L7.97266 12.5981C8.10449 12.0093 8.35938 11.4644 8.5791 11.0688L7.41016 9.18799C7.33984 9.06494 7.33984 8.95947 7.43652 8.854L8.36816 7.93994C8.47363 7.84326 8.57031 7.82568 8.70215 7.90479L10.583 9.05615C10.9785 8.81006 11.5674 8.56396 12.1299 8.42334L12.6484 6.26123C12.666 6.12939 12.7451 6.05908 12.8945 6.05908H14.2217C14.3711 6.05908 14.4414 6.12061 14.4678 6.26123L14.9951 8.43213C15.5664 8.57275 16.085 8.81006 16.5244 9.05615L18.4053 7.90479C18.5371 7.83447 18.6338 7.84326 18.7393 7.94873L19.6709 8.86279C19.7764 8.95947 19.7764 9.06494 19.6973 9.18799L18.5371 11.0688C18.748 11.4644 19.0117 12.0093 19.1436 12.5981L21.3057 13.1079C21.4463 13.1431 21.499 13.2046 21.499 13.3628V14.6636C21.499 14.813 21.4375 14.8921 21.3057 14.9097L19.1348 15.4282C19.0029 15.9819 18.7656 16.5181 18.5195 16.9312L19.6885 18.8208C19.7588 18.9438 19.7588 19.0405 19.6533 19.1372L18.7305 20.0688C18.625 20.1743 18.5195 20.1831 18.4053 20.1128L16.5156 18.9438C16.0762 19.2163 15.5752 19.436 14.9951 19.5767L14.4678 21.7388C14.4414 21.8706 14.3711 21.9321 14.2217 21.9321H12.8945ZM13.5625 17.3354C15.3906 17.3354 16.8936 15.8325 16.8936 13.9956C16.8936 12.1763 15.3906 10.6733 13.5625 10.6733C11.7256 10.6733 10.2139 12.1763 10.2139 13.9956C10.2139 15.8325 11.7256 17.3354 13.5625 17.3354ZM13.5625 15.8149C12.5605 15.8149 11.7432 14.9976 11.7432 13.9956C11.7432 13.0112 12.5693 12.1938 13.5625 12.1938C14.5381 12.1938 15.3555 13.0112 15.3555 13.9956C15.3555 14.9888 14.5381 15.8149 13.5625 15.8149Z" fill="#E4FF00"/>
</svg>
