<svg width="30" height="30" viewBox="0 0 30 30" fill="none" xmlns="http://www.w3.org/2000/svg">
<path d="M13.5417 7.91671H16.4584V10.75H13.5417V7.91671ZM13.5417 13.5834H16.4584V22.0834H13.5417V13.5834ZM15 0.833374C6.95002 0.833374 0.416687 7.18004 0.416687 15C0.416687 22.82 6.95002 29.1667 15 29.1667C23.05 29.1667 29.5834 22.82 29.5834 15C29.5834 7.18004 23.05 0.833374 15 0.833374ZM15 26.3334C8.56877 26.3334 3.33335 21.2475 3.33335 15C3.33335 8.75254 8.56877 3.66671 15 3.66671C21.4313 3.66671 26.6667 8.75254 26.6667 15C26.6667 21.2475 21.4313 26.3334 15 26.3334Z" fill="#E4FF00"/>
</svg>
