<svg width="30" height="26" viewBox="0 0 30 26" fill="none" xmlns="http://www.w3.org/2000/svg">
<path d="M29.1666 0.25L26.8008 2.61583L24.4491 0.25L22.0833 2.61583L19.7175 0.25L17.3658 2.61583L15 0.25L12.6341 2.61583L10.2825 0.25L7.91665 2.61583L5.55081 0.25L3.19915 2.61583L0.833313 0.25V22.9167C0.833313 24.475 2.10831 25.75 3.66665 25.75H26.3333C27.8916 25.75 29.1666 24.475 29.1666 22.9167V0.25ZM13.5833 22.9167H3.66665V14.4167H13.5833V22.9167ZM26.3333 22.9167H16.4166V20.0833H26.3333V22.9167ZM26.3333 17.25H16.4166V14.4167H26.3333V17.25ZM26.3333 11.5833H3.66665V7.33333H26.3333V11.5833Z" fill="#E4FF00"/>
</svg>
