<svg width="22" height="21" viewBox="0 0 22 21" fill="none" xmlns="http://www.w3.org/2000/svg">
<path d="M11.222 18.355C11.042 18.535 10.722 18.565 10.512 18.355C10.332 18.175 10.302 17.855 10.512 17.645L13.902 14.255L12.492 12.845L9.10198 16.235C8.91198 16.435 8.59198 16.425 8.39198 16.235C8.18198 16.025 8.21198 15.705 8.39198 15.525L11.782 12.135L10.372 10.725L6.98198 14.115C6.80198 14.295 6.48198 14.325 6.27198 14.115C6.08198 13.925 6.08198 13.605 6.27198 13.405L9.66198 10.015L8.24198 8.60501L4.85198 11.995C4.67198 12.175 4.35198 12.205 4.14198 11.995C3.95198 11.795 3.95198 11.485 4.14198 11.285L8.52198 6.905L10.392 8.76501C11.342 9.715 12.982 9.705 13.932 8.76501C14.912 7.78501 14.912 6.205 13.932 5.225L12.072 3.36501L12.352 3.085C13.132 2.305 14.402 2.305 15.182 3.085L19.422 7.325C20.202 8.105 20.202 9.375 19.422 10.155L11.222 18.355ZM20.832 11.575C22.392 10.015 22.392 7.485 20.832 5.915L16.592 1.675C15.032 0.115005 12.502 0.115005 10.932 1.675L10.652 1.955L10.372 1.675C8.81198 0.115005 6.28198 0.115005 4.71198 1.675L1.17198 5.215C-0.248016 6.635 -0.378016 8.84501 0.771984 10.405L2.22198 8.955C1.83198 8.205 1.96198 7.255 2.59198 6.625L6.13198 3.085C6.91198 2.305 8.18198 2.305 8.96198 3.085L12.522 6.64501C12.702 6.82501 12.732 7.14501 12.522 7.35501C12.312 7.56501 11.992 7.53501 11.812 7.35501L8.52198 4.07501L2.72198 9.865C1.74198 10.835 1.74198 12.425 2.72198 13.405C3.11198 13.795 3.61198 14.035 4.14198 14.105C4.21198 14.625 4.44198 15.125 4.84198 15.525C5.24198 15.925 5.74198 16.155 6.26198 16.225C6.33198 16.745 6.56198 17.245 6.96198 17.645C7.36198 18.045 7.86198 18.275 8.38198 18.345C8.45198 18.885 8.69198 19.375 9.08198 19.765C9.55198 20.235 10.182 20.495 10.852 20.495C11.522 20.495 12.152 20.235 12.622 19.765L20.832 11.575Z" fill="#E4FF00"/>
</svg>
