<svg width="23" height="30" viewBox="0 0 23 30" fill="none" xmlns="http://www.w3.org/2000/svg">
<path d="M20 6.50004H17.1667C17.1667 3.36921 14.6309 0.833374 11.5 0.833374C8.36919 0.833374 5.83335 3.36921 5.83335 6.50004H3.00002C1.44169 6.50004 0.166687 7.77504 0.166687 9.33337V26.3334C0.166687 27.8917 1.44169 29.1667 3.00002 29.1667H20C21.5584 29.1667 22.8334 27.8917 22.8334 26.3334V9.33337C22.8334 7.77504 21.5584 6.50004 20 6.50004ZM11.5 3.66671C13.0584 3.66671 14.3334 4.94171 14.3334 6.50004H8.66669C8.66669 4.94171 9.94169 3.66671 11.5 3.66671ZM20 26.3334H3.00002V9.33337H5.83335V12.1667C5.83335 12.9459 6.47085 13.5834 7.25002 13.5834C8.02919 13.5834 8.66669 12.9459 8.66669 12.1667V9.33337H14.3334V12.1667C14.3334 12.9459 14.9709 13.5834 15.75 13.5834C16.5292 13.5834 17.1667 12.9459 17.1667 12.1667V9.33337H20V26.3334Z" fill="#E4FF00"/>
</svg>
