<svg width="34" height="20" viewBox="0 0 34 20" fill="none" xmlns="http://www.w3.org/2000/svg">
<path d="M17 9.70536C19.5827 9.70536 21.6745 7.56585 21.6745 4.93415C21.6745 2.34263 19.5934 0.273438 17 0.273438C14.4386 0.273438 12.3255 2.37277 12.3255 4.95424C12.3361 7.57589 14.4173 9.70536 17 9.70536ZM4.61997 9.93638C6.87185 9.93638 8.68617 8.05804 8.68617 5.73772C8.68617 3.47768 6.87185 1.64955 4.61997 1.64955C2.38943 1.64955 0.5431 3.50781 0.553772 5.74777C0.553772 8.06808 2.37876 9.93638 4.61997 9.93638ZM29.38 9.93638C31.6106 9.93638 33.4355 8.06808 33.4462 5.74777C33.4569 3.50781 31.6106 1.64955 29.38 1.64955C27.1281 1.64955 25.3031 3.47768 25.3031 5.73772C25.3031 8.05804 27.1281 9.93638 29.38 9.93638ZM17 7.94754C15.5272 7.94754 14.2785 6.64174 14.2785 4.9442C14.2785 3.30692 15.5165 2.03125 17 2.03125C18.4941 2.03125 19.7215 3.28683 19.7215 4.93415C19.7215 6.62165 18.4835 7.94754 17 7.94754ZM4.61997 8.19866C3.41398 8.19866 2.38943 7.11384 2.38943 5.74777C2.38943 4.44196 3.40331 3.37723 4.61997 3.37723C5.85797 3.37723 6.86118 4.42188 6.86118 5.73772C6.86118 7.11384 5.83663 8.19866 4.61997 8.19866ZM29.38 8.19866C28.1527 8.19866 27.1388 7.11384 27.1388 5.73772C27.1388 4.42188 28.142 3.37723 29.38 3.37723C30.586 3.37723 31.6106 4.44196 31.6106 5.74777C31.6106 7.11384 30.586 8.19866 29.38 8.19866ZM-1.24987 19.1674H7.04261C6.45563 18.846 6.06075 18.1127 6.13545 17.4498H-1.34592C-1.5487 17.4498 -1.63408 17.3594 -1.63408 17.1886C-1.63408 14.8884 1.22614 12.6987 4.6093 12.6987C5.80461 12.6987 6.99992 12.9799 7.91775 13.4621C8.28061 12.9699 8.72886 12.548 9.31584 12.1864C7.96044 11.4029 6.2742 10.981 4.6093 10.981C0.0948574 10.981 -3.55511 14.0145 -3.55511 17.3493C-3.55511 18.5547 -2.7867 19.1674 -1.24987 19.1674ZM35.2499 19.1674C36.7867 19.1674 37.5551 18.5547 37.5551 17.3493C37.5551 14.0145 33.8945 10.981 29.38 10.981C27.7258 10.981 26.0289 11.4029 24.6841 12.1864C25.2711 12.548 25.7194 12.9699 26.0716 13.4621C26.9894 12.9799 28.1954 12.6987 29.38 12.6987C32.7632 12.6987 35.6341 14.8884 35.6341 17.1886C35.6341 17.3594 35.5487 17.4498 35.3459 17.4498H27.8539C27.9286 18.1127 27.5444 18.846 26.9574 19.1674H35.2499ZM10.3511 19.1674H23.6489C25.4952 19.1674 26.3811 18.615 26.3811 17.4297C26.3811 14.6674 22.7204 10.9911 17 10.9911C11.2796 10.9911 7.60825 14.6674 7.60825 17.4297C7.60825 18.615 8.50473 19.1674 10.3511 19.1674ZM10.0095 17.4096C9.76408 17.4096 9.66803 17.3292 9.66803 17.1484C9.66803 15.6116 12.3041 12.7489 17 12.7489C21.6959 12.7489 24.332 15.6116 24.332 17.1484C24.332 17.3292 24.2359 17.4096 23.9798 17.4096H10.0095Z" fill="#E4FF00"/>
</svg>
